<?xml version="1.0" standalone="no"?>
<!DOCTYPE svg PUBLIC "-//W3C//DTD SVG 1.1//EN" "http://www.w3.org/Graphics/SVG/1.1/DTD/svg11.dtd" >
<svg>
<metadata>
Created by FontForge 20120731 at Thu Sep 15 21:08:12 2016
 By ,,,
Copyright (c) 2015, UNOapp
</metadata>
<defs>
<font id="webbuilder_font" horiz-adv-x="1700" >
  <font-face 
    font-family="UNOapp Webbuilder"
    font-weight="400"
    font-stretch="normal"
    units-per-em="2048"
    panose-1="2 0 5 9 0 0 0 0 0 0"
    ascent="1638"
    descent="-410"
    cap-height="1536"
    bbox="36 -7 1724 1607"
    underline-thickness="102"
    underline-position="-1316"
    unicode-range="U+000D-25FC"
  />
<missing-glyph horiz-adv-x="748" 
d="M68 0v1365h544v-1365h-544zM136 68h408v1229h-408v-1229z" />
    <glyph glyph-name=".notdef" horiz-adv-x="748" 
d="M68 0v1365h544v-1365h-544zM136 68h408v1229h-408v-1229z" />
    <glyph glyph-name="glyph1" horiz-adv-x="0" 
 />
    <glyph glyph-name="uni000D" unicode="&#xd;" horiz-adv-x="2048" 
 />
    <glyph glyph-name="A" unicode="A" horiz-adv-x="1840" 
d="M116 803q0 163 64 312t172 256t256 171t312 64t312 -64t256 -171t172 -256t64 -312t-64 -312t-172 -256t-256 -171t-312 -64t-312 64t-256 171t-172 256t-64 312zM678 764h144v-426h172v426h142l20 164h-160v108q0 40 16 58q8 10 22 15t24 5h10h94v148q-57 9 -108 9
q-29 0 -55 -3q-73 -8 -117 -54q-30 -28 -45 -67t-17 -63v-24v-132h-142v-164z" />
    <glyph glyph-name="B" unicode="B" horiz-adv-x="1840" 
d="M116 803q0 163 64 312t172 256t256 171t312 64t312 -64t256 -171t172 -256t64 -312t-64 -312t-172 -256t-256 -171t-312 -64t-312 64t-256 171t-172 256t-64 312zM490 504q0 -40 24 -79q34 -55 118 -81q59 -21 123 -21h16q73 3 137 23t113 66t65 106q4 8 6 22t-1 48
t-19 61t-47 56t-64 56t-39 35q-16 20 -11 42t21 40q8 8 20 19t26 22t18 15q52 48 52 144q0 2 1 5t-1 14l-4 22t-8 26t-15 29t-25 31t-34 31h74l80 48h-270q0 -2 -5 -1t-15 0t-23 -2t-30 -4t-33 -7t-35 -12t-35 -17t-32 -22t-28 -29q-56 -72 -56 -151v-5q2 -82 64 -134
q36 -32 83 -44q40 -10 64 -10h7l28 4q-2 -4 -4 -10t-5 -21t-3 -29q2 -22 40 -74h-21t-50 -4t-69 -12t-70 -24t-64 -40q-46 -42 -60 -99q-4 -17 -4 -33zM602 527v5q2 56 34 86q22 18 44 30t71 21t119 11q50 -36 82 -62q26 -20 41 -51t13 -53q-2 -18 -4 -30t-12 -33t-35 -38
t-63 -27q-28 -10 -62 -10q-15 0 -30 2q-52 6 -96 22t-74 52q-28 34 -28 75zM664 1102q0 19 3 38q9 56 57 88q2 0 8 3t22 7t32 4t37 -9t39 -27q46 -44 64 -114q12 -45 12 -81q0 -20 -4 -37q-2 -10 -6 -20t-8 -17t-8 -13t-10 -11t-9 -6t-9 -5t-8 -4q-6 -6 -21 -10t-37 -4
t-48 12t-46 40q-32 42 -49 95q-11 35 -11 71zM1100 818h96v-96h56v96h96v58h-96v96h-56v-96h-96v-58z" />
    <glyph glyph-name="C" unicode="C" horiz-adv-x="1840" 
d="M924 934q28 0 52.5 -10.5t43 -29t29 -43t10.5 -52.5t-10.5 -53t-29 -43.5t-43 -29t-52.5 -10.5t-53 10.5t-43.5 29t-29 43.5t-10.5 53t10.5 52.5t29 43t43.5 29t53 10.5zM1240 1038q5 -11 8.5 -28.5t5.5 -46.5q1 -16 1.5 -28.5t0.5 -29v-41.5v-65v-65.5v-41t-0.5 -29
t-1.5 -28.5q-2 -30 -5.5 -47.5t-8.5 -28.5q-5 -14 -12 -24.5t-18 -21.5t-22 -18t-25 -13q-11 -4 -28.5 -8t-46.5 -6q-16 -1 -28.5 -1.5t-29 -0.5h-41.5h-65h-66h-41.5t-28.5 0.5t-28 1.5q-30 2 -47.5 6t-28.5 8q-14 6 -24.5 13t-21.5 18t-18 21.5t-13 24.5q-4 11 -8 28.5
t-6 47.5q-1 16 -1.5 28.5t-0.5 29v41v65.5v65v41.5t0.5 29t1.5 28.5q2 29 6 46.5t8 28.5q6 14 13 25t18 22t21.5 18t24.5 12q11 5 28.5 8.5t47.5 5.5q16 1 28 1.5t28.5 1t41.5 0.5h66h65t41.5 -0.5t29 -1t28.5 -1.5q29 -2 46.5 -5.5t28.5 -8.5q14 -5 25 -12t22 -18
q20 -20 30 -47zM924 590q43 0 81 16.5t66 44.5t44.5 66t16.5 82q0 43 -16.5 81t-44.5 66t-66 44.5t-81 16.5t-81 -16.5t-66.5 -44.5t-45 -66t-16.5 -81q0 -44 16.5 -82t45 -66t66.5 -44.5t81 -16.5zM1140 967q20 0 34.5 14t14.5 34t-14.5 34.5t-34.5 14.5t-34 -14.5
t-14 -34.5t14 -34t34 -14zM1659 1116q63 -149 63 -312q0 -164 -63 -312q-63 -150 -170.5 -256.5t-256.5 -170.5q-147 -64 -312 -64t-312 64q-149 64 -256.5 170.5t-170.5 256.5q-63 148 -63 312q0 163 63 312q63 150 170.5 256.5t256.5 170.5q147 64 312 64t312 -64
q149 -64 256.5 -170.5t170.5 -256.5zM1327 631q1 16 1.5 29t1 30t0.5 42v67v66.5t-0.5 42.5t-1 29.5t-1.5 28.5q-2 32 -6.5 55.5t-12.5 43.5t-19 37.5t-28 34.5t-34 27.5t-37 18.5t-43.5 12.5t-55.5 6.5q-16 1 -28.5 1.5t-29.5 1t-42.5 0.5h-66.5h-67t-42 -0.5t-30 -1
t-29 -1.5q-32 -2 -55.5 -6.5t-42.5 -12.5q-20 -8 -37.5 -18.5t-34.5 -27.5t-28 -34.5t-19 -37.5t-12.5 -43.5t-6.5 -55.5q-1 -16 -1.5 -28.5t-0.5 -29.5v-42.5v-66.5v-67v-42t0.5 -30t1.5 -29q2 -32 6.5 -55t12.5 -43t19 -37.5t28 -34.5t34.5 -28t37.5 -19q19 -8 42.5 -12.5
t55.5 -6.5q16 -1 29 -1.5t30 -0.5h42h67h66.5h42.5t29.5 0.5t28.5 1.5q32 2 55.5 6.5t43.5 12.5t37 19t34 28t28 34.5t19 37.5t12.5 43t6.5 55z" />
    <glyph glyph-name="D" unicode="D" horiz-adv-x="1840" 
d="M118 803q0 163 63 312t171 256t256 171t312 64t312 -64t256 -171t171 -256t63 -312t-63 -312t-171 -256t-256 -171t-312 -64t-312 64t-256 171t-171 256t-63 312zM568 1068q0 -22 11 -42t31 -31t42 -11q36 0 61 25t25 60t-25 60t-60 25t-60 -25t-25 -61zM580 452h146v468
h-146v-468zM816 452h146v242v4v10t1 15t4 17t7 18t10 17t14 15t20 10t26 4q82 -6 80 -110v-242h148v254q-2 0 -1 10t-1 27t-4 38t-9 43t-17 41t-28 34t-40 21q-42 12 -77 12q-91 0 -139 -78v66h-140v-468z" />
    <glyph glyph-name="E" unicode="E" horiz-adv-x="1840" 
d="M118 803q0 163 63 312t171 256t256 171t312 64t312 -64t256 -171t171 -256t63 -312t-63 -312t-171 -256t-256 -171t-312 -64t-312 64t-256 171t-171 256t-63 312zM558 929q0 -5 1 -22t4 -33t11 -38t18 -41t29 -38t43 -31q4 0 8 -2t12 0t10 8l12 42q6 22 -6 34
q-36 48 -36 112q0 18 4 41t15 52t31 56t48 51t72 38t98 14h8t19 -2t30 -5t34 -10t36 -17t34 -26t29 -37t20 -51t8 -66q0 -8 -1 -21t-7 -51t-16 -70t-33 -66t-55 -52q-33 -17 -61 -17q-6 0 -11 1q-32 4 -47 27t-22 49t3 50q43 110 43 162q0 6 -1 12q-6 74 -69 74h-3
q-44 0 -76 -42q-28 -37 -28 -84v-12q4 -50 18 -80l-64 -284q-12 -52 -14 -84l6 -122q0 -14 6 -16q10 0 28 28q0 2 9 15l18 26t20 34t21 47t16 54l30 118q6 -8 17 -19t45 -29q31 -16 63 -16h7q72 0 139 38t105 124q16 36 26 69t14 57t5 42t1 28l-2 8q0 6 -1 18t-9 45t-21 63
t-41 66t-64 61t-94 41q-49 13 -107 13h-22q-71 -3 -130 -22t-95 -48t-64 -63t-41 -68t-21 -62t-10 -44l-2 -18v-9z" />
    <glyph glyph-name="F" unicode="F" horiz-adv-x="1840" 
d="M118 803q0 163 63 312t171 256t256 171t312 64t312 -64t256 -171t171 -256t63 -312t-63 -312t-171 -256t-256 -171t-312 -64t-312 64t-256 171t-171 256t-63 312zM444 502q48 -40 129 -63t175 -24h5q92 0 189 34q100 35 174 107q58 56 99 122t56 120t23 101q6 38 6 62v11
l-2 26q28 18 52 44t36 40l10 16q-10 -6 -24 -11t-28 -8t-27 -5t-21 -4l-8 -2q18 12 33 27t23 29t14 26t8 18l2 8q-14 -10 -32 -18t-34 -13t-30 -9t-22 -4l-8 -2q-10 14 -37 29t-63 26q-21 6 -44 6q-17 0 -36 -3q-44 -8 -80 -38q-30 -26 -48 -55t-23 -54t-6 -47t3 -34l2 -12
q-70 4 -138 26t-113 52t-80 59t-53 49l-16 20q-29 -52 -29 -101q0 -71 61 -135q12 -16 26 -24q-20 0 -41 6t-35 12l-12 6q0 -44 16 -80t38 -56t44 -34t38 -18l16 -6q-4 -2 -14 -5t-21 -3h-22h-17h-8q12 -36 34 -63t46 -39t47 -20t37 -8l16 -2q-54 -44 -125 -65
q-65 -19 -107 -19h-8z" />
    <glyph glyph-name="G" unicode="G" horiz-adv-x="1840" 
d="M118 803q0 163 63 312t171 256t256 171t312 64t312 -64t256 -171t171 -256t63 -312t-63 -312t-171 -256t-256 -171t-312 -64t-312 64t-256 171t-171 256t-63 312zM416 502q0 -74 53 -127t127 -53h648q74 0 127 53t53 127v148q0 74 -53 126t-127 52h-648q-74 0 -127 -52
t-53 -126v-148zM560 714v48h176v-48h-60v-288h-56v288h-60zM608 1284l78 -224v-148h64v154l74 218h-64l-42 -150l-44 150h-66zM758 462v214h50v-192q0 -16 14 -16q4 0 8 2l8 4t7 5l5 5l2 2v190h50v-250h-50v28q-32 -32 -60 -32q-18 0 -26 13t-8 27zM828 982q2 -34 18 -52
q28 -26 62 -26q44 0 68 24q6 6 10 13t5 15t2 15t1 11v4v142v7t-5 16t-13 20t-24 16t-40 7q-36 0 -57 -16t-23 -32l-4 -16v-148zM886 974v150q2 22 24 22q10 0 16 -5t8 -9t2 -6v-154q-4 -20 -24 -20q-14 0 -20 8t-6 14zM940 426v336h52v-108q14 24 48 24q22 0 34 -18t12 -40
v-148q0 -2 -1 -5t-3 -12t-6 -16t-13 -12t-23 -5q-24 0 -48 24v-20h-52zM992 472q8 -10 22 -10q20 0 20 16v138q0 24 -22 24q-12 -2 -20 -10v-158zM1040 958q0 -52 38 -52q18 0 35 9t25 17l8 8v-28h58v274h-60v-208q-16 -20 -32 -20q-6 0 -9 4t-5 8v4v212h-58v-228zM1114 482
v8v116q0 8 2 17t9 24t24 24t43 9q32 0 49 -19t19 -37v-20v-60h-96v-54q0 -14 6 -21t12 -5h6q14 0 20 11t4 23l-2 10h50q0 -42 -14 -65t-60 -23q-20 0 -34 7t-21 17t-12 20t-5 18zM1166 584h44v32v6t-6 10t-17 6t-16 -5t-5 -11v-4v-34z" />
    <glyph glyph-name="H" unicode="H" 
d="M84 1253q0 17 7 30t20 20t31 7h170q48 0 58 -46l22 -124h1140q22 0 46 -24q10 -10 10 -46l-114 -568q-8 -46 -56 -46h-888l10 -58h844q26 0 41 -15t15 -41t-15 -42t-41 -16h-890q-46 0 -56 46l-170 866h-126q-18 0 -31 7t-20 20t-7 30zM416 1026l90 -456h866l92 456
h-1048zM466 114q0 48 34 81t80 33q32 0 58 -15t41 -42t15 -57q0 -48 -33 -81t-80 -33t-81 33t-34 81zM1184 114q0 30 15 57t42 42t57 15t57 -15t42 -42t15 -57q0 -48 -33 -81t-81 -33t-81 33t-33 81z" />
    <glyph glyph-name="I" unicode="I" 
d="M82 0v1536h1536v-1536h-1536zM622 730h136v-400h162v400h132l20 156h-152v100q0 36 16 54q2 4 7 7t10 5t11 4t10 2t8 1t6 1h2h88v138q-54 8 -101 8q-27 0 -53 -3q-68 -7 -110 -51q-28 -26 -42 -62t-14 -58v-22v-124h-136v-156z" />
    <glyph glyph-name="J" unicode="J" 
d="M82 0v1536h1536v-1536h-1536zM404 486q44 -38 120 -59t164 -23h10q83 0 173 32q95 34 163 100q54 52 92 114t53 113t22 95q5 34 5 56v12l-2 24q26 18 49 42t33 38l10 16q-6 -4 -15 -8t-18 -7t-19 -5t-19 -4t-15 -3t-10 -1h-4q26 16 45 41t23 43l6 16q-22 -14 -51 -25
t-49 -15l-18 -4q-10 14 -35 28t-58 24q-19 6 -42 6q-16 0 -33 -3q-42 -7 -76 -37q-28 -22 -45 -50t-22 -51t-5 -44t2 -31l2 -12q-66 4 -129 25t-106 49t-76 55t-47 45l-16 20q-22 -40 -25 -80q-1 -10 -1 -19q0 -27 7 -47q9 -26 28 -51t28 -33t15 -14q-16 0 -36 6t-32 10
l-12 6q0 -42 15 -75t36 -52t41 -32t36 -17l14 -6q-6 -4 -25 -6t-35 -2l-18 2q12 -34 33 -60t44 -38t44 -19t35 -7l14 -2q-32 -26 -71 -43t-72 -24t-62 -9t-47 -2z" />
    <glyph glyph-name="K" unicode="K" 
d="M1153 986q4 -10 7.5 -26t5.5 -44q0 -15 0.5 -26.5t1 -27t0.5 -39v-61.5v-61t-0.5 -38.5t-1 -27t-0.5 -26.5q-2 -29 -5.5 -45t-7.5 -26q-10 -25 -29 -44q-18 -18 -43 -28q-11 -4 -27 -8t-44 -5q-15 -1 -26.5 -1.5t-27 -0.5h-39h-61.5h-61h-38.5t-27 0.5t-26.5 1.5
q-28 1 -44 5t-27 8q-13 5 -23 11.5t-20 16.5q-11 10 -17.5 20t-11.5 24q-4 10 -7.5 26t-5.5 45q-1 15 -1.5 26.5t-0.5 27v38.5v61v61.5v39t0.5 27t1.5 26.5q2 28 5.5 44t7.5 26q5 14 11.5 24t17.5 20q10 10 20 16.5t23 11.5q11 5 27 8.5t44 4.5q15 1 26.5 1.5t27 1t38.5 0.5
h61h61.5t39 -0.5t27 -1t26.5 -1.5q28 -1 44 -4.5t27 -8.5q13 -5 23 -11.5t20 -16.5q19 -19 29 -44zM856 567q40 0 76 15.5t62 41.5t41.5 61.5t15.5 76.5q0 40 -15.5 76t-41.5 62t-62 41.5t-76 15.5t-75.5 -15.5t-62 -41.5t-42 -62t-15.5 -76q0 -41 15.5 -76.5t42 -61.5
t62 -41.5t75.5 -15.5zM1059 919q19 0 32.5 13.5t13.5 32.5t-13.5 32.5t-32.5 13.5t-32 -13.5t-13 -32.5t13 -32.5t32 -13.5zM856 889q26 0 49 -10t40.5 -27.5t27.5 -40.5t10 -49t-10 -49.5t-27.5 -40.5t-40.5 -27t-49 -10t-49 10t-40 27t-27 40.5t-10 49.5t10 49t27 40.5
t40 27.5t49 10zM1622 1534v-1536h-1536v1536h1536zM1234 605q1 15 1.5 27t0.5 28v39.5v62.5v62.5v39.5t-0.5 28t-1.5 27q-2 30 -6 52t-12 40q-7 19 -17 35t-26 32t-32.5 26t-35.5 18q-18 7 -40 11.5t-52 6.5q-15 1 -27 1.5t-28 0.5h-39.5h-62.5h-62.5h-39t-27.5 -0.5
t-27 -1.5q-31 -2 -52.5 -6.5t-40.5 -11.5q-19 -8 -35 -18t-32 -26t-26 -32t-18 -35q-7 -18 -11 -40t-6 -52q-1 -15 -1.5 -27t-1 -28t-0.5 -39.5v-62.5v-62.5t0.5 -39.5t1 -28t1.5 -27q2 -30 6 -52t11 -40q8 -19 18 -35t26 -32t32 -26t35 -18q19 -7 40.5 -11.5t52.5 -6.5
q15 0 27 -0.5t27.5 -1t39 -0.5h62.5h62.5t39.5 0.5t28 1t27 0.5q30 2 52 6.5t40 11.5q19 8 35.5 18t32.5 26t26 32t17 35q8 18 12 40t6 52z" />
    <glyph glyph-name="L" unicode="L" 
d="M82 0v1536h1536v-1536h-1536zM520 1018q0 -22 11 -40t29 -29t40 -11q32 0 55 23t23 56t-23 56t-56 23t-56 -23t-23 -55zM530 440h138v438h-138v-438zM752 440h138v226v4v9t1 14t3 16t6 17t10 16t13 14t18 9t25 3q78 -4 76 -102v-226h138v238q-2 0 -1 9t0 25t-4 35t-10 40
t-16 39t-25 32t-38 20q-39 11 -73 11q-85 0 -129 -73v62h-132v-438z" />
    <glyph glyph-name="M" unicode="M" 
d="M82 0v1536h1536v-1536h-1536zM447 490q0 -39 23 -77q32 -53 110 -77q54 -17 113 -17h18q69 3 129 21t105 61t61 101q2 6 5 19t0 45t-18 57t-45 53t-60 52t-38 32q-12 20 -7 41t19 37q8 8 19 18t23 20t18 16q48 44 48 134v5t-1 13t-3 20t-8 24t-14 28t-22 30t-32 28h70
l74 44h-252h-6t-14 -1t-22 -2t-27 -4t-31 -7t-33 -10t-33 -15t-31 -21t-27 -28q-52 -66 -52 -140v-5q2 -77 62 -127q34 -28 77 -40q32 -9 54 -9q7 0 13 1l26 2q-2 -4 -4 -10t-5 -20t-3 -26q2 -22 36 -70h-18t-47 -4t-65 -11t-66 -23t-60 -36q-44 -40 -56 -93q-3 -14 -3 -29z
M552 508v6q0 50 32 80q20 16 41 27t67 21t112 10q46 -34 76 -58q24 -18 39 -47t13 -51q-2 -16 -5 -27t-12 -31t-33 -36t-58 -26q-27 -8 -59 -8q-13 0 -27 1q-48 5 -90 20t-70 49q-26 32 -26 70zM610 1049q0 18 3 36q9 53 53 81q4 0 9 3t20 7t30 4t35 -8t36 -26
q42 -42 59 -107q12 -44 12 -79q0 -16 -3 -30q-2 -12 -6 -21t-8 -16t-8 -12t-10 -9t-8 -6t-8 -6l-6 -4q-8 -4 -22 -7t-35 -4t-45 11t-42 36q-28 40 -45 90q-11 33 -11 67zM1018 782h90v-90h54v90h90v54h-90v90h-54v-90h-90v-54z" />
    <glyph glyph-name="N" unicode="N" 
d="M82 0v1536h1536v-1536h-1536zM511 866q1 -16 4 -32t10 -36t17 -38t28 -35t40 -29q4 0 8 -2t11 0t9 8l10 40q6 18 -4 32q-34 44 -34 104q0 16 4 38t14 49t29 53t45 48t68 35t92 13h7t18 -1t27 -4t32 -10t34 -16t32 -25t27 -35t19 -47t8 -62q0 -8 -1 -21t-7 -48t-15 -65
t-31 -62t-52 -48q-29 -16 -54 -16q-6 0 -13 1q-31 5 -45 25t-20 45t4 47q40 106 40 156v8q-8 70 -67 70h-3q-40 -2 -70 -41q-26 -34 -26 -77v-12q2 -48 16 -76l-60 -264q-12 -50 -12 -80l4 -114q2 -14 6 -14h1q10 0 25 26q2 0 10 12t16 25t18 32t20 44t16 51l28 110l16 -16
t42 -27t66 -17q68 2 130 37t98 115q14 34 24 65t13 53t5 39q1 8 1 15t-1 12v8q0 6 -1 17t-9 42t-20 59t-38 61t-60 57t-88 39q-48 13 -105 13h-16q-67 -2 -122 -21t-89 -46t-60 -59t-38 -64t-20 -58t-10 -42v-16q0 -2 -1 -7v-7.5v-13.5z" />
    <glyph glyph-name="O" unicode="O" 
d="M82 0v1536h1536v-1536h-1536zM378 486q0 -70 50 -119t118 -49h608q68 0 118 49t50 119v138q0 70 -50 119t-118 49h-608q-68 0 -118 -49t-50 -119v-138zM514 684v46h162v-46h-54v-268h-54v268h-54zM558 1218l72 -208v-140h60v146l70 202h-60l-40 -140l-42 140h-60z
M698 448v200h48v-178q-2 -16 12 -16q4 0 8 2t7 4l6 4t5 4l2 2v178h48v-232h-48v24q-30 -28 -56 -28q-12 0 -19 7t-10 15t-3 14zM764 936q2 -32 18 -48q24 -24 56 -24q42 0 64 22q8 8 13 21t5 23v10v132q0 4 -1 8t-5 14t-11 18t-23 15t-38 7q-34 0 -53 -15t-21 -29l-4 -16
v-138zM818 928v142q2 20 24 20t22 -20v-142q-2 -20 -22 -20q-12 0 -18 7t-6 13zM870 416v314h48v-102q14 22 44 22q22 0 33 -17t11 -37v-138q0 -2 -1 -5t-3 -11t-6 -14t-13 -11t-19 -5q-24 0 -46 20v-16h-48zM916 458q8 -10 24 -10q18 0 18 14v130q-6 20 -20 22
q-12 0 -22 -8v-148zM962 912q0 -46 36 -46q16 0 32 8t24 16l8 8v-28h54v256h-56v-194q-14 -18 -30 -18q-6 0 -9 4t-3 8l-2 4v196h-54v-214zM1032 468v6v108q0 8 2 17t8 23t22 23t40 9q30 0 47 -18t17 -36l2 -18v-56h-90v-52q0 -12 5 -18t11 -6h4q14 0 19 10t5 22l-2 10h48
q0 -40 -14 -62t-58 -22q-18 0 -31 7t-20 17t-11 19t-4 17zM1080 562h42v30v7t-6 9t-16 6t-15 -5t-5 -11v-4v-32z" />
    <glyph glyph-name="P" unicode="P" horiz-adv-x="1400" 
d="M398 534v204h178v166v5v11t1 16t3 21t6 25t10 27t13 29t18 29t25 29q56 56 147 67q35 4 72 4q61 0 131 -11v-184h-116q-50 0 -72 -26q-20 -24 -20 -74v-134h202l-26 -206h-178v-532h-214v534h-180z" />
    <glyph glyph-name="Q" unicode="Q" horiz-adv-x="1400" 
d="M162 227q0 20 5 40q17 71 75 123q50 46 136 71t146 27l60 2q-46 64 -48 94v10t1 12l2 12t2 11t3 9t3 8t2 6t3 4v2q-14 -2 -38 -4h-6q-25 0 -78 13q-60 15 -106 53q-78 64 -81 168v8q0 100 69 186q44 56 118 85t126 31l54 2h338l-100 -58h-94q32 -24 56 -54t33 -54t14 -45
t5 -33v-12q-2 -120 -66 -180q-4 -4 -35 -31t-45 -41q-18 -20 -25 -48t11 -56q8 -8 35 -30l54 -44t56 -52t45 -56q18 -34 23 -74q2 -18 2 -33q0 -18 -3 -31l-4 -24q-22 -78 -83 -134t-140 -81t-171 -29h-23q-79 0 -151 24q-106 32 -149 102q-31 50 -31 101zM304 256
q0 -54 35 -96q37 -44 93 -65t119 -28q18 -2 34 -2q44 0 81 13q46 14 77 35t44 47t17 40t6 38v5q0 27 -18 62q-20 39 -50 63l-102 78q-126 -2 -189 -23t-103 -57q-20 -16 -31 -42t-11 -44l-2 -18v-6zM382 970q0 -44 13 -86q21 -66 61 -118q32 -44 77 -57q31 -9 53 -9
q10 0 19 2q27 6 43 16l8 4t11 7t11 9t12 13t10 16t11 21t7 26q5 23 5 49q0 44 -14 98q-23 87 -79 143q-36 36 -80 42q-15 2 -27 2q-25 0 -41 -8l-26 -10q-58 -38 -70 -109q-4 -26 -4 -51zM924 618v72h120v122h72v-122h122v-72h-122v-120h-72v120h-120z" />
    <glyph glyph-name="R" unicode="R" horiz-adv-x="1504" 
d="M746 1042q74 0 138.5 -28t112.5 -76t76 -113t28 -139t-28 -138.5t-76 -112.5t-112.5 -76t-138.5 -28t-139 28t-113 76t-76 112.5t-28 138.5t28 139t76 113t113 76t139 28zM746 455q47 0 89 18.5t73.5 50t50 73.5t18.5 89q0 48 -18.5 90t-50 73.5t-73.5 49.5t-89 18
q-48 0 -90 -18t-73.5 -49.5t-49.5 -73.5t-18 -90q0 -47 18 -89t49.5 -73.5t73.5 -50t90 -18.5zM1200 1057q0 -35 -25 -59t-59 -24q-35 0 -59 24t-24 59q0 18 6.5 33t17.5 26.5t26.5 18t32.5 6.5t32 -6.5t26.5 -18t18.5 -26.5t7 -33zM1434 973q2 -28 3 -49.5t1.5 -50.5
t0.5 -72.5v-114.5v-114t-0.5 -72t-1.5 -50.5t-3 -49.5q-2 -56 -10 -96t-21 -72q-13 -35 -31.5 -64.5t-48.5 -58.5q-29 -30 -58.5 -48.5t-64.5 -31.5q-32 -13 -72 -21t-96 -10q-28 -2 -49.5 -3t-50.5 -1.5t-72 -0.5h-114h-114.5t-72.5 0.5t-50.5 1.5t-49.5 3q-56 2 -96 10
t-72 21q-35 13 -64.5 31.5t-58.5 48.5q-29 29 -48 58.5t-32 64.5q-14 32 -22 72t-11 96q-1 28 -1.5 49.5t-1 50.5t-0.5 72v114v114.5t0.5 72.5t1 50.5t1.5 49.5q3 56 11 96t22 72q13 35 32 64.5t48 58.5t58.5 48t64.5 32q32 14 72 22t96 11q28 1 49.5 1.5t50.5 1t72.5 0.5
h114.5h114t72 -0.5t50.5 -1t49.5 -1.5q56 -3 96 -11t72 -22q35 -13 64.5 -32t58.5 -48q30 -29 48.5 -58.5t31.5 -64.5q13 -32 21 -72t10 -96zM1312 406q1 27 1.5 48.5t1 50t0.5 70.5v111v111.5t-0.5 71t-1 49.5t-1.5 49q-4 51 -10.5 80.5t-14.5 49.5q-10 24 -22 42t-31 36
q-18 19 -36 31t-43 23q-18 7 -48 13.5t-81 8.5q-27 1 -48.5 2t-50 1.5t-70.5 0.5h-111h-111.5t-71 -0.5t-49.5 -1.5t-49 -2q-51 -2 -80.5 -8.5t-49.5 -13.5q-24 -11 -42 -23t-36 -31q-19 -18 -31 -36t-23 -42q-7 -20 -13.5 -49.5t-8.5 -80.5q-2 -28 -2.5 -49t-1 -49.5
t-0.5 -71v-111.5v-111t0.5 -70.5t1 -50t2.5 -48.5q2 -51 8.5 -81t13.5 -48q11 -25 23 -43t31 -36q18 -19 36 -31t42 -22q20 -8 49.5 -14.5t80.5 -10.5q28 -1 49 -1.5t49.5 -1t71 -0.5h111.5h111t70.5 0.5t50 1t48.5 1.5q51 4 81 10.5t48 14.5q25 10 43 22t36 31q19 18 31 36
t22 43q8 18 14.5 48t10.5 81z" />
    <glyph glyph-name="S" unicode="S" horiz-adv-x="1400" 
d="M260 770q0 28 14 53t39 39t53 14q44 0 75 -31t31 -75t-31 -75t-75 -31t-75 31t-31 75zM274 0v584h182v-584h-182zM570 0v584h176v-82q59 97 172 97q45 0 98 -15q38 -10 64 -41t37 -69t17 -73t6 -59v-24v-318h-184v302v6q0 22 -2 38t-10 41t-31 38t-59 13q-48 0 -74 -34
t-26 -68l-2 -34v-302h-182z" />
    <glyph glyph-name="T" unicode="T" horiz-adv-x="1400" 
d="M248 758l2 14q0 8 6 34q4 28 12 54q10 26 26 62t38 66q22 32 58 64t78 54q42 24 102 40q62 16 132 18q15 1 29 1q71 0 131 -17q74 -18 118 -52q46 -34 80 -76q34 -40 50 -84q8 -18 28 -76q8 -34 10 -58l2 -22q2 -4 2 -12q0 -6 -2 -32q0 -26 -6 -54q-4 -26 -18 -70
q-12 -42 -32 -86q-48 -106 -130 -154q-84 -48 -174 -50q-50 0 -86 20q-44 22 -60 40l-18 20l-38 -146q-8 -30 -18 -58q-10 -30 -20 -51t-22 -41t-20 -32l-16 -24t-10 -14q-21 -34 -33 -34h-1q-4 0 -6 4q-2 2 -2 10v6l-8 152q0 6 6 44q2 22 8 44l4 16l80 354q-8 18 -14 42
q-6 30 -8 42l-2 16q-1 8 -1 15q0 54 37 105q38 52 94 54h6q78 0 86 -94q1 -7 0 -14q0 -73 -54 -204q-7 -17 -7 -36q0 -22 9 -48q16 -44 58 -66q17 -8 37 -8q33 0 75 22q40 22 70 64q28 40 42 84q8 30 20 84q6 36 8 68v26v17q0 66 -28 115q-34 68 -68 82q-66 30 -78 38
q-22 12 -68 14h-28h-10q-72 0 -134 -26q-62 -24 -98 -62q-34 -36 -58 -82q-22 -46 -30 -82q-6 -34 -6 -64q0 -34 10 -70q12 -34 22 -52l12 -16q8 -12 8 -18q2 -14 2 -18l-2 -6l-16 -54q-2 -6 -10 -10q-10 -2 -18 0q-6 4 -8 4q-30 16 -52 38q-24 24 -38 46q-14 26 -24 50
q-8 28 -12 50q-6 36 -4 40l24 54z" />
    <glyph glyph-name="U" unicode="U" horiz-adv-x="1400" 
d="M104 110q10 -2 25 -2t59 2t85 11t94 32t95 59q-8 0 -20 1t-44 11t-60 25t-57 49t-43 80q23 -2 42 -2q49 0 60 12q-8 2 -21 6t-45 22t-57 43t-46 70t-21 101q58 -30 110 -32q-80 60 -102 154q-6 25 -6 49q0 61 36 123q8 -8 22 -25t63 -60t102 -76t139 -63t174 -34
q-2 6 -4 16t-2 41t6 60t29 67t59 68q38 32 82 44q31 8 59 8q12 0 23 -1q38 -5 73 -18t57 -28t34 -29q92 14 156 58q-2 -10 -8 -25t-31 -51t-59 -58q90 12 134 36q-46 -70 -122 -126q0 -6 1 -17t-1 -48t-8 -74t-22 -90t-39 -104t-64 -109t-95 -110q-92 -88 -218 -133
q-121 -43 -233 -43h-10q-117 2 -219 31t-162 79z" />
    <glyph glyph-name="V" unicode="V" horiz-adv-x="1400" 
d="M72 224v186q0 92 65 158t159 66h808q94 0 159 -66t65 -158v-186q0 -62 -30 -113t-81 -81t-113 -30h-808q-94 0 -159 66t-65 158zM250 490h74v-360h72v360h72v60h-218v-60zM310 1202h82l54 -188l52 188h82l-92 -272v-194h-82v186zM498 174q0 -16 10 -33t32 -17q16 0 35 10
t29 20l12 10v-34h62v310h-62v-236q-22 -22 -40 -22q-6 0 -10 5t-6 9v6v238h-62v-266zM586 812v12v186v4t3 11t6 16t11 16t19 16t28 11t37 4q46 0 71 -20t29 -40l2 -22l2 -178q0 -48 -24 -70q-30 -30 -86 -30q-42 0 -76 32q-10 10 -15 26t-7 26zM658 814q0 -4 2 -9t10 -11
t19 -6t19 6t10 12l2 6v192q0 4 -2 9t-10 10t-20 5t-20 -6t-8 -12l-2 -8v-188zM726 130h64v24q14 -14 29 -21t23 -7l10 -2q24 0 37 16t15 32l2 16h2v184q0 16 -6 32t-19 28t-33 12q-18 0 -33 -8t-21 -14l-6 -8v136h-64v-420zM790 188v196q4 4 11 8t11 4h4q26 0 28 -30v-172
q0 -20 -26 -20q-8 0 -15 3t-11 7zM850 794v286h72v-264q2 -22 16 -22q22 0 44 26v260h74v-344h-74v36q-36 -42 -84 -42t-48 64zM942 208q0 -4 1 -9t6 -20t14 -27t27 -21t42 -9q58 0 76 29t18 81h-64l1 -2t1 -8v-12t-2 -12t-5 -11t-9 -8t-14 -3h-8t-12 8t-8 24v70h120v76v3
q0 3 -1 8t-2 12t-4 15l-6 16t-10 15t-16 13t-21 9t-26 3q-26 0 -45 -9t-29 -20t-16 -26t-7 -24t-1 -15v-146zM1006 326v42q0 4 1 8t8 11t20 7t20 -7t7 -13v-6v-42h-56z" />
    <glyph glyph-name="W" unicode="W" horiz-adv-x="1240" 
d="M292 40l576 574l-576 576l40 38l616 -614l-616 -614z" />
    <glyph glyph-name="X" unicode="X" horiz-adv-x="1240" 
d="M292 616l616 614l40 -40l-576 -574l576 -574l-40 -40z" />
    <glyph glyph-name="Y" unicode="Y" horiz-adv-x="1300" 
d="M36 318l614 614l614 -614l-40 -40l-574 576l-574 -576z" />
    <glyph glyph-name="Z" unicode="Z" horiz-adv-x="1300" 
d="M36 892l40 40l574 -574l574 574l40 -40l-614 -614z" />
    <glyph glyph-name="a" unicode="a" horiz-adv-x="1840" 
d="M117 803q0 93 21 183.5t61 169.5t95 148.5t124.5 124.5t148.5 94.5t169.5 61t183.5 21.5t183.5 -21.5t169.5 -61t148.5 -94.5t124.5 -124.5t95 -148.5t61 -169.5t21 -183.5q0 -109 -29 -213t-81 -192t-126 -162.5t-162 -126t-192 -80.5t-213 -29t-213 29t-192 80.5
t-162 126t-126 162.5t-81 192t-29 213zM553 963q0 -57 20 -111q22 -73 65.5 -161t90.5 -162t91 -137.5t72 -99.5l28 -36q3 4 9.5 12t25.5 33.5t38 52t46 66.5t52 78.5t52.5 86t50 91t43 91t34.5 88.5q19 72 19 112q0 6 4 9q0 75 -29.5 143.5t-79.5 118.5t-118.5 79.5
t-143.5 29.5t-143.5 -29.5t-118 -79.5t-79 -118.5t-29.5 -143.5v-13zM740 979.5q0 74.5 52.5 127.5t127.5 53t127.5 -53t52.5 -127.5t-52.5 -127t-127.5 -52.5t-127.5 52.5t-52.5 127z" />
    <glyph glyph-name="b" unicode="b" horiz-adv-x="1840" 
d="M117 803q0 109 29 213t81 192t126 162t162 126t192 81t213 29t213 -29t192 -81t162 -126t126 -162t81 -192t29 -213t-29 -213t-81 -192t-126 -162.5t-162 -126t-192 -80.5t-213 -29t-213 29t-192 80.5t-162 126t-126 162.5t-81 192t-29 213zM478 1072v-14q0 -56 26 -131
q48 -131 157 -262q127 -155 321 -252q91 -48 177 -53h13q60 0 99 43q8 10 19 21t24.5 24t21.5 21q26 26 26 56q0 28 -26 52l-118 118q-24 24 -52 24t-53 -24l-72 -72l-3 -4l-16 -16q-9 -4 -17 0q-7 6 -23.5 14.5t-22.5 11.5q-97 60 -180 164q-45 57 -65 105q-6 11 0 16
l16 17l3 3q10 6 23 20l49 49q25 24 25 52t-25 53l-12.5 12.5l-13.5 13.5l-14.5 14.5l-14.5 14.5l-59 59q-25 25 -53 25t-52 -25q-8 -7 -22 -22t-26.5 -27.5t-23.5 -22.5q-31 -26 -36 -78z" />
    <glyph glyph-name="c" unicode="c" 
d="M82 0v1536h1536v-1536h-1536zM506 919q0 -54 18 -105q21 -68 62 -150.5t85 -152t85 -129t68 -93.5l26 -34q3 4 9 11.5t23.5 31.5t35.5 49t43.5 62.5t48.5 73.5t49 80.5t47.5 85t40.5 85t32 83.5q18 68 18 105q0 6 3 9q0 70 -27.5 134t-74 111t-111 74.5t-134.5 27.5
t-134.5 -27.5t-111 -74.5t-74 -111t-27.5 -134v-12zM681 934q0 70 49.5 119.5t119.5 49.5t119.5 -49.5t49.5 -119.5t-49.5 -119.5t-119.5 -49.5t-119.5 49.5t-49.5 119.5z" />
    <glyph glyph-name="d" unicode="d" 
d="M82 0v1536h1536v-1536h-1536zM435 1020v-11q0 -53 25 -124q45 -123 147 -246q119 -146 301 -237q85 -44 166 -49q6 0 13 -1q56 0 92 41q8 10 18 20t23 22t20 20q24 23 25 51q0 26 -25 50q-74 74 -110 111q-23 23 -49.5 23t-49.5 -23l-67 -68l-3 -3l-16 -15q-7 -4 -15 0
q-7 5 -22.5 13t-20.5 11q-91 57 -169 154q-43 53 -62 98q-5 10 0 15l16 16l3 3q9 6 21 18l46 46q24 23 24 49.5t-24 49.5l-12 12l-12.5 12.5l-13.5 13.5l-14 14q-27 28 -55 55q-23 23 -49 23t-49 -23q-7 -7 -20.5 -21t-25 -25.5t-22.5 -20.5q-29 -25 -34 -74z" />
    <glyph glyph-name="e" unicode="e" horiz-adv-x="1400" 
d="M331 781v13q0 75 29.5 143.5t79.5 118t118.5 79t143.5 29.5t143 -29.5t117.5 -79.5t78.5 -119q28 -67 28 -140v-5v-13q0 -58 -20 -112q-22 -72 -66 -160t-91 -162t-90.5 -137.5t-71.5 -100.5l-28 -36q-11 14 -30 38.5t-69.5 97t-93.5 142t-89 159.5t-69 163
q-20 72 -20 111zM521 791q0 -49 24 -90t65.5 -65.5t91.5 -24.5q75 0 127.5 53t52.5 127t-52.5 127t-127.5 53t-128 -52t-53 -128z" />
    <glyph glyph-name="f" unicode="f" horiz-adv-x="1400" 
d="M148 964q6 65 45 98q14 13 29.5 28.5t33 34t27.5 27.5q30 31 65 31t66 -31q37 -36 74 -73q8 -9 22.5 -23.5l26 -26l20.5 -20.5q31 -31 31 -65.5t-31 -65.5l-61 -61q-17 -17 -29 -25l-4 -4l-21 -21q-6 -6 0 -20q25 -60 82 -131q104 -130 226 -205q6 -4 27 -15t30 -18
q10 -5 21 0l20 21l4 4l90 90q31 31 66 31t65 -31q49 -49 148 -147q32 -31 32 -66q0 -37 -32 -70q-10 -9 -27.5 -25.5t-30.5 -30t-24 -26.5q-49 -54 -124 -54q-7 0 -15 1q-109 6 -222 66q-242 121 -401 315q-137 164 -197 328q-33 92 -33 162q0 9 1 18z" />
    <glyph glyph-name="uni2000" unicode="&#x2000;" horiz-adv-x="803" 
 />
    <glyph glyph-name="uni2001" unicode="&#x2001;" horiz-adv-x="1606" 
 />
    <glyph glyph-name="uni2002" unicode="&#x2002;" horiz-adv-x="803" 
 />
    <glyph glyph-name="uni2003" unicode="&#x2003;" horiz-adv-x="1606" 
 />
    <glyph glyph-name="uni2004" unicode="&#x2004;" horiz-adv-x="535" 
 />
    <glyph glyph-name="uni2005" unicode="&#x2005;" horiz-adv-x="401" 
 />
    <glyph glyph-name="uni2006" unicode="&#x2006;" horiz-adv-x="267" 
 />
    <glyph glyph-name="uni2007" unicode="&#x2007;" horiz-adv-x="267" 
 />
    <glyph glyph-name="uni2008" unicode="&#x2008;" horiz-adv-x="200" 
 />
    <glyph glyph-name="uni2009" unicode="&#x2009;" horiz-adv-x="321" 
 />
    <glyph glyph-name="uni200A" unicode="&#x200a;" horiz-adv-x="89" 
 />
    <glyph glyph-name="uni202F" unicode="&#x202f;" horiz-adv-x="321" 
 />
    <glyph glyph-name="uni205F" unicode="&#x205f;" horiz-adv-x="401" 
 />
    <glyph glyph-name="uni25FC" unicode="&#x25fc;" horiz-adv-x="500" 
 />
  </font>
</defs>
</svg>
